# xmcd
#
# Track frame offsets:
#	150
#	33309
#	66530
#	88290
#	121127
#
# Disc length: 2154 seconds
#
# Revision: 1
# Processed by: cddbd v1.5.2PL0 Copyright (c) Steve Scherf et al.
# Submitted via: audiograbber 1.83.01
#
DISCID=42086805
DTITLE=Grateful Dead - 78-10-18 Winterland Arena, San Francisco CA
DYEAR=1900
DGENRE=
TTITLE0=Bertha
TTITLE1=Good Lovin'
TTITLE2=From The Heart Of Me
TTITLE3=Ship Of Fools
TTITLE4=Samson and Delilah
EXTD=
EXTT0=
EXTT1=
EXTT2=
EXTT3=
EXTT4=
PLAYORDER=
